<svg width="35" height="38" viewBox="0 0 35 38" fill="none" xmlns="http://www.w3.org/2000/svg">
<path d="M24.7598 8.3459C22.8218 6.29004 20.2446 5.1582 17.5 5.1582C14.7554 5.1582 12.1782 6.29004 10.2402 8.34219C8.30908 10.3906 7.24609 13.107 7.24609 15.9979C7.24609 24.9523 15.2476 31.1088 17.5 32.6637C19.7524 31.1088 27.7539 24.9523 27.7539 15.9979C27.7539 13.107 26.6909 10.3906 24.7598 8.3459ZM17.5 22.8223C14.1777 22.8223 11.4844 19.898 11.4844 16.291C11.4844 12.684 14.1777 9.75977 17.5 9.75977C20.8223 9.75977 23.5156 12.684 23.5156 16.291C23.5156 19.898 20.8223 22.8223 17.5 22.8223Z" fill="#E1A057"/>
<path d="M17.5 9.75977C14.1777 9.75977 11.4844 12.684 11.4844 16.291C11.4844 19.898 14.1777 22.8223 17.5 22.8223C20.8223 22.8223 23.5156 19.898 23.5156 16.291C23.5156 12.684 20.8223 9.75977 17.5 9.75977ZM20.207 19.2301C19.852 19.6167 19.43 19.9232 18.9655 20.1321C18.5009 20.341 18.0028 20.4481 17.5 20.4473C16.478 20.4473 15.5176 20.0131 14.793 19.2301C14.4369 18.8446 14.1545 18.3865 13.9621 17.8821C13.7697 17.3777 13.6711 16.837 13.6719 16.291C13.6719 15.1814 14.0718 14.1387 14.793 13.352C15.5176 12.5652 16.478 12.1348 17.5 12.1348C18.522 12.1348 19.4824 12.5652 20.207 13.352C20.9316 14.1387 21.3281 15.1814 21.3281 16.291C21.3281 17.4006 20.9316 18.4434 20.207 19.2301Z" fill="#E1A057"/>
<path d="M29.21 10.7283C28.5665 9.11733 27.6387 7.65871 26.479 6.43477C25.3155 5.19976 23.9438 4.21955 22.439 3.54766C20.8735 2.84258 19.2124 2.48633 17.5 2.48633C15.7876 2.48633 14.1265 2.84258 12.561 3.54395C11.0469 4.22305 9.68994 5.19531 8.521 6.43105C7.36204 7.65569 6.43438 9.11414 5.79004 10.7246C5.12353 12.3945 4.78516 14.1684 4.78516 15.9941C4.78516 18.6141 5.36279 21.2229 6.49756 23.7389C7.41016 25.7613 8.68506 27.7318 10.2915 29.6059C13.0361 32.8047 15.9141 34.7603 16.731 35.2836C16.9628 35.4323 17.2273 35.5105 17.4966 35.51C17.7632 35.51 18.0264 35.4357 18.2622 35.2836C19.0791 34.7603 21.957 32.8047 24.7017 29.6059C26.3081 27.7355 27.583 25.7613 28.4956 23.7389C29.6372 21.2266 30.2148 18.6215 30.2148 15.9979C30.2148 14.1721 29.8765 12.3982 29.21 10.7283ZM17.5 32.6637C15.2476 31.1088 7.24609 24.9523 7.24609 15.9979C7.24609 13.107 8.30908 10.3906 10.2402 8.34219C12.1782 6.29004 14.7554 5.1582 17.5 5.1582C20.2446 5.1582 22.8218 6.29004 24.7598 8.3459C26.6909 10.3906 27.7539 13.107 27.7539 15.9979C27.7539 24.9523 19.7524 31.1088 17.5 32.6637Z" fill="#E1A057"/>
</svg>
